G04 #@! TF.FileFunction,Soldermask,Bot*
%FSLAX46Y46*%
G04 Gerber Fmt 4.6, Leading zero omitted, Abs format (unit mm)*
G04 Created by KiCad (PCBNEW 4.0.7-e2-6376~58~ubuntu16.04.1) date Thu Jul 12 19:01:00 2018*
%MOMM*%
%LPD*%
G01*
G04 APERTURE LIST*
%ADD10C,0.100000*%
%ADD11O,2.540000X3.810000*%
%ADD12R,2.000000X2.000000*%
%ADD13R,1.500000X1.500000*%
G04 APERTURE END LIST*
D10*
D11*
X52920000Y-118380000D03*
X52920000Y-126000000D03*
X58000000Y-118380000D03*
X58000000Y-126000000D03*
X73920000Y-118380000D03*
X73920000Y-126000000D03*
X79000000Y-118380000D03*
X79000000Y-126000000D03*
X95000000Y-118380000D03*
X95000000Y-126000000D03*
X100080000Y-118380000D03*
X100080000Y-126000000D03*
X116000000Y-118380000D03*
X116000000Y-126000000D03*
X121080000Y-118380000D03*
X121080000Y-126000000D03*
X137000000Y-118380000D03*
X137000000Y-126000000D03*
X142080000Y-118380000D03*
X142080000Y-126000000D03*
X157920000Y-118380000D03*
X157920000Y-126000000D03*
X163000000Y-118380000D03*
X163000000Y-126000000D03*
X178920000Y-118380000D03*
X178920000Y-126000000D03*
X184000000Y-118380000D03*
X184000000Y-126000000D03*
X200000000Y-118380000D03*
X200000000Y-126000000D03*
X205080000Y-118380000D03*
X205080000Y-126000000D03*
X221000000Y-118380000D03*
X221000000Y-126000000D03*
X226080000Y-118380000D03*
X226080000Y-126000000D03*
D12*
X69300000Y-97500000D03*
X69300000Y-102500000D03*
X98700000Y-92300000D03*
X98700000Y-107700000D03*
D13*
X66000000Y-114300000D03*
X66000000Y-116840000D03*
D12*
X66000000Y-127000000D03*
X66000000Y-134620000D03*
D13*
X87000000Y-114300000D03*
X87000000Y-116840000D03*
D12*
X87000000Y-127000000D03*
X87000000Y-134620000D03*
D13*
X108000000Y-114300000D03*
X108000000Y-116840000D03*
D12*
X108000000Y-127000000D03*
X108000000Y-134620000D03*
D13*
X129000000Y-114300000D03*
X129000000Y-116840000D03*
D12*
X129000000Y-127000000D03*
X129000000Y-134620000D03*
D13*
X150000000Y-114300000D03*
X150000000Y-116840000D03*
D12*
X150000000Y-127000000D03*
X150000000Y-134620000D03*
D13*
X171000000Y-114300000D03*
X171000000Y-116840000D03*
D12*
X171000000Y-127000000D03*
X171000000Y-134620000D03*
D13*
X192000000Y-114300000D03*
X192000000Y-116840000D03*
D12*
X192000000Y-127000000D03*
X192000000Y-134620000D03*
D13*
X213000000Y-114300000D03*
X213000000Y-116840000D03*
D12*
X213000000Y-127000000D03*
X213000000Y-134620000D03*
M02*
