G04 #@! TF.FileFunction,Copper,L2,Bot,Signal*
%FSLAX46Y46*%
G04 Gerber Fmt 4.6, Leading zero omitted, Abs format (unit mm)*
G04 Created by KiCad (PCBNEW 4.0.7-e2-6376~58~ubuntu16.04.1) date Thu Jul 12 19:01:00 2018*
%MOMM*%
%LPD*%
G01*
G04 APERTURE LIST*
%ADD10C,0.100000*%
%ADD11O,2.540000X3.810000*%
%ADD12R,2.000000X2.000000*%
%ADD13R,1.500000X1.500000*%
%ADD14C,4.000000*%
%ADD15C,0.900000*%
%ADD16C,0.600000*%
%ADD17C,0.600000*%
%ADD18C,0.400000*%
%ADD19C,1.500000*%
%ADD20C,3.000000*%
%ADD21C,0.254000*%
G04 APERTURE END LIST*
D10*
D11*
X52920000Y-118380000D03*
X52920000Y-126000000D03*
X58000000Y-118380000D03*
X58000000Y-126000000D03*
X73920000Y-118380000D03*
X73920000Y-126000000D03*
X79000000Y-118380000D03*
X79000000Y-126000000D03*
X95000000Y-118380000D03*
X95000000Y-126000000D03*
X100080000Y-118380000D03*
X100080000Y-126000000D03*
X116000000Y-118380000D03*
X116000000Y-126000000D03*
X121080000Y-118380000D03*
X121080000Y-126000000D03*
X137000000Y-118380000D03*
X137000000Y-126000000D03*
X142080000Y-118380000D03*
X142080000Y-126000000D03*
X157920000Y-118380000D03*
X157920000Y-126000000D03*
X163000000Y-118380000D03*
X163000000Y-126000000D03*
X178920000Y-118380000D03*
X178920000Y-126000000D03*
X184000000Y-118380000D03*
X184000000Y-126000000D03*
X200000000Y-118380000D03*
X200000000Y-126000000D03*
X205080000Y-118380000D03*
X205080000Y-126000000D03*
X221000000Y-118380000D03*
X221000000Y-126000000D03*
X226080000Y-118380000D03*
X226080000Y-126000000D03*
D12*
X69300000Y-97500000D03*
X69300000Y-102500000D03*
X98700000Y-92300000D03*
X98700000Y-107700000D03*
D13*
X66000000Y-114300000D03*
X66000000Y-116840000D03*
D12*
X66000000Y-127000000D03*
X66000000Y-134620000D03*
D13*
X87000000Y-114300000D03*
X87000000Y-116840000D03*
D12*
X87000000Y-127000000D03*
X87000000Y-134620000D03*
D13*
X108000000Y-114300000D03*
X108000000Y-116840000D03*
D12*
X108000000Y-127000000D03*
X108000000Y-134620000D03*
D13*
X129000000Y-114300000D03*
X129000000Y-116840000D03*
D12*
X129000000Y-127000000D03*
X129000000Y-134620000D03*
D13*
X150000000Y-114300000D03*
X150000000Y-116840000D03*
D12*
X150000000Y-127000000D03*
X150000000Y-134620000D03*
D13*
X171000000Y-114300000D03*
X171000000Y-116840000D03*
D12*
X171000000Y-127000000D03*
X171000000Y-134620000D03*
D13*
X192000000Y-114300000D03*
X192000000Y-116840000D03*
D12*
X192000000Y-127000000D03*
X192000000Y-134620000D03*
D13*
X213000000Y-114300000D03*
X213000000Y-116840000D03*
D12*
X213000000Y-127000000D03*
X213000000Y-134620000D03*
D14*
X140000000Y-112000000D03*
X229000000Y-112000000D03*
X53000000Y-112000000D03*
D15*
X109500000Y-106500000D03*
X184022601Y-105816518D03*
X126870478Y-97668546D03*
X185601048Y-96692565D03*
X178343175Y-100988127D03*
X191153126Y-107416923D03*
X185500000Y-107000000D03*
X191500000Y-91000000D03*
X176350000Y-96825000D03*
X127000000Y-105920000D03*
X116905000Y-98095000D03*
D16*
X181260660Y-97588161D03*
X191957425Y-97542575D03*
X145000000Y-92500000D03*
X140500000Y-95000000D03*
X191000000Y-94500000D03*
X125980859Y-98917459D03*
X141500000Y-98500000D03*
X191000000Y-95500000D03*
X190500000Y-103000000D03*
X167500000Y-101000000D03*
X176210331Y-99368926D03*
X191000000Y-100000000D03*
X167500000Y-98500000D03*
X191000000Y-99000000D03*
X183000000Y-101000000D03*
X186000000Y-101000000D03*
D17*
X110000000Y-107000000D02*
X109500000Y-106500000D01*
X110000000Y-110000000D02*
X110000000Y-107000000D01*
X131000000Y-110000000D02*
X135786329Y-110000000D01*
X135786329Y-110000000D02*
X137812202Y-107974127D01*
X137812202Y-107974127D02*
X141903945Y-107974127D01*
X143929818Y-110000000D02*
X152000000Y-110000000D01*
X141903945Y-107974127D02*
X143929818Y-110000000D01*
X184022601Y-106452914D02*
X184022601Y-105816518D01*
X184000000Y-110000000D02*
X184022601Y-109977399D01*
X184022601Y-109977399D02*
X184022601Y-106452914D01*
X184000000Y-110000000D02*
X194000000Y-110000000D01*
X173000000Y-110000000D02*
X184000000Y-110000000D01*
X69000000Y-110000000D02*
X89000000Y-110000000D01*
X89000000Y-110000000D02*
X110000000Y-110000000D01*
X87000000Y-116840000D02*
X88350000Y-116840000D01*
X88350000Y-116840000D02*
X89000000Y-116190000D01*
X89000000Y-116190000D02*
X89000000Y-110000000D01*
X110000000Y-110000000D02*
X131000000Y-110000000D01*
X108000000Y-116840000D02*
X109350000Y-116840000D01*
X109350000Y-116840000D02*
X110000000Y-116190000D01*
X110000000Y-116190000D02*
X110000000Y-110000000D01*
X129000000Y-116840000D02*
X130350000Y-116840000D01*
X130350000Y-116840000D02*
X131000000Y-116190000D01*
X131000000Y-116190000D02*
X131000000Y-110000000D01*
X151350000Y-116840000D02*
X152000000Y-116190000D01*
X152000000Y-110000000D02*
X173000000Y-110000000D01*
X150000000Y-116840000D02*
X151350000Y-116840000D01*
X152000000Y-116190000D02*
X152000000Y-110000000D01*
X171000000Y-116840000D02*
X172350000Y-116840000D01*
X172350000Y-116840000D02*
X173000000Y-116190000D01*
X173000000Y-116190000D02*
X173000000Y-110000000D01*
X194000000Y-110000000D02*
X214000000Y-110000000D01*
X192000000Y-116840000D02*
X193350000Y-116840000D01*
X193350000Y-116840000D02*
X194000000Y-116190000D01*
X194000000Y-116190000D02*
X194000000Y-110000000D01*
X66000000Y-116840000D02*
X67350000Y-116840000D01*
X67350000Y-116840000D02*
X68000000Y-116190000D01*
X68000000Y-116190000D02*
X68000000Y-111000000D01*
X68000000Y-111000000D02*
X69000000Y-110000000D01*
X214000000Y-110000000D02*
X215000000Y-111000000D01*
X215000000Y-111000000D02*
X215000000Y-116190000D01*
X215000000Y-116190000D02*
X214350000Y-116840000D01*
X214350000Y-116840000D02*
X213000000Y-116840000D01*
D18*
X191957425Y-97542575D02*
X181306246Y-97542575D01*
X181306246Y-97542575D02*
X181260660Y-97588161D01*
D19*
X52920000Y-118380000D02*
X52920000Y-117745000D01*
X69000000Y-97500000D02*
X69300000Y-97500000D01*
X52920000Y-117745000D02*
X58000000Y-112665000D01*
X58000000Y-112665000D02*
X58000000Y-109000000D01*
X58000000Y-109000000D02*
X59000000Y-108000000D01*
X59000000Y-108000000D02*
X64500000Y-108000000D01*
X64500000Y-108000000D02*
X66500000Y-106000000D01*
X66500000Y-106000000D02*
X66500000Y-100000000D01*
X66500000Y-100000000D02*
X69000000Y-97500000D01*
D20*
X192000000Y-134620000D02*
X213000000Y-134620000D01*
X171000000Y-134620000D02*
X192000000Y-134620000D01*
X150000000Y-134620000D02*
X171000000Y-134620000D01*
X129000000Y-134620000D02*
X150000000Y-134620000D01*
X108000000Y-134620000D02*
X129000000Y-134620000D01*
X87000000Y-134620000D02*
X108000000Y-134620000D01*
X66000000Y-134620000D02*
X87000000Y-134620000D01*
X52920000Y-126000000D02*
X61540000Y-134620000D01*
X61540000Y-134620000D02*
X66000000Y-134620000D01*
X52920000Y-118380000D02*
X52920000Y-126000000D01*
D18*
X191000000Y-94500000D02*
X145000000Y-94500000D01*
X145000000Y-94500000D02*
X141000000Y-94500000D01*
X145000000Y-92500000D02*
X145000000Y-94500000D01*
X141000000Y-94500000D02*
X140500000Y-95000000D01*
X126405123Y-98917459D02*
X125980859Y-98917459D01*
X141500000Y-98500000D02*
X141082541Y-98917459D01*
X141082541Y-98917459D02*
X126405123Y-98917459D01*
X144500000Y-95500000D02*
X141500000Y-98500000D01*
X144995116Y-95500000D02*
X144500000Y-95500000D01*
X191000000Y-95500000D02*
X144995116Y-95500000D01*
X169000000Y-103000000D02*
X190500000Y-103000000D01*
X167500000Y-101500000D02*
X169000000Y-103000000D01*
X167500000Y-101000000D02*
X167500000Y-101500000D01*
X176510330Y-99668925D02*
X176210331Y-99368926D01*
X176841405Y-100000000D02*
X176510330Y-99668925D01*
X191000000Y-100000000D02*
X176841405Y-100000000D01*
X180156411Y-98500000D02*
X167924264Y-98500000D01*
X191000000Y-99000000D02*
X180656411Y-99000000D01*
X180656411Y-99000000D02*
X180156411Y-98500000D01*
X167924264Y-98500000D02*
X167500000Y-98500000D01*
X186000000Y-101000000D02*
X183000000Y-101000000D01*
D21*
G36*
X208873000Y-108373000D02*
X184957601Y-108373000D01*
X184957601Y-106394070D01*
X185107412Y-106033285D01*
X185107789Y-105601645D01*
X184942955Y-105202718D01*
X184638006Y-104897236D01*
X184239368Y-104731707D01*
X183807728Y-104731330D01*
X183408801Y-104896164D01*
X183103319Y-105201113D01*
X182937790Y-105599751D01*
X182937413Y-106031391D01*
X183087601Y-106394872D01*
X183087601Y-108373000D01*
X143625108Y-108373000D01*
X142565090Y-107312982D01*
X142261754Y-107110300D01*
X141903945Y-107039127D01*
X137812202Y-107039127D01*
X137454393Y-107110300D01*
X137151057Y-107312982D01*
X136091039Y-108373000D01*
X110935000Y-108373000D01*
X110935000Y-107000000D01*
X110863827Y-106642191D01*
X110661145Y-106338855D01*
X110569536Y-106247246D01*
X110420354Y-105886200D01*
X110115405Y-105580718D01*
X109716767Y-105415189D01*
X109285127Y-105414812D01*
X108886200Y-105579646D01*
X108580718Y-105884595D01*
X108415189Y-106283233D01*
X108414812Y-106714873D01*
X108579646Y-107113800D01*
X108884595Y-107419282D01*
X109065000Y-107494193D01*
X109065000Y-108373000D01*
X100347440Y-108373000D01*
X100347440Y-106700000D01*
X100303162Y-106464683D01*
X100164090Y-106248559D01*
X99951890Y-106103569D01*
X99700000Y-106052560D01*
X97700000Y-106052560D01*
X97464683Y-106096838D01*
X97248559Y-106235910D01*
X97103569Y-106448110D01*
X97052560Y-106700000D01*
X97052560Y-108373000D01*
X80627000Y-108373000D01*
X80627000Y-101185167D01*
X166564838Y-101185167D01*
X166665000Y-101427578D01*
X166665000Y-101500000D01*
X166728561Y-101819541D01*
X166805600Y-101934838D01*
X166909566Y-102090434D01*
X168409566Y-103590434D01*
X168680459Y-103771439D01*
X169000000Y-103835000D01*
X190072766Y-103835000D01*
X190313201Y-103934838D01*
X190685167Y-103935162D01*
X191028943Y-103793117D01*
X191292192Y-103530327D01*
X191434838Y-103186799D01*
X191435162Y-102814833D01*
X191293117Y-102471057D01*
X191030327Y-102207808D01*
X190686799Y-102065162D01*
X190314833Y-102064838D01*
X190072422Y-102165000D01*
X169345868Y-102165000D01*
X168415130Y-101234262D01*
X168434838Y-101186799D01*
X168435162Y-100814833D01*
X168293117Y-100471057D01*
X168030327Y-100207808D01*
X167686799Y-100065162D01*
X167314833Y-100064838D01*
X166971057Y-100206883D01*
X166707808Y-100469673D01*
X166565162Y-100813201D01*
X166564838Y-101185167D01*
X80627000Y-101185167D01*
X80627000Y-99102626D01*
X125045697Y-99102626D01*
X125187742Y-99446402D01*
X125450532Y-99709651D01*
X125794060Y-99852297D01*
X126166026Y-99852621D01*
X126408437Y-99752459D01*
X141082541Y-99752459D01*
X141402082Y-99688898D01*
X141672975Y-99507893D01*
X141788333Y-99392535D01*
X142028943Y-99293117D01*
X142292192Y-99030327D01*
X142392778Y-98788090D01*
X142495701Y-98685167D01*
X166564838Y-98685167D01*
X166706883Y-99028943D01*
X166969673Y-99292192D01*
X167313201Y-99434838D01*
X167685167Y-99435162D01*
X167927578Y-99335000D01*
X175275360Y-99335000D01*
X175275169Y-99554093D01*
X175417214Y-99897869D01*
X175680004Y-100161118D01*
X175922241Y-100261704D01*
X176250971Y-100590434D01*
X176521865Y-100771440D01*
X176841405Y-100835000D01*
X182065143Y-100835000D01*
X182064838Y-101185167D01*
X182206883Y-101528943D01*
X182469673Y-101792192D01*
X182813201Y-101934838D01*
X183185167Y-101935162D01*
X183427578Y-101835000D01*
X185572766Y-101835000D01*
X185813201Y-101934838D01*
X186185167Y-101935162D01*
X186528943Y-101793117D01*
X186792192Y-101530327D01*
X186934838Y-101186799D01*
X186935144Y-100835000D01*
X190572766Y-100835000D01*
X190813201Y-100934838D01*
X191185167Y-100935162D01*
X191528943Y-100793117D01*
X191792192Y-100530327D01*
X191934838Y-100186799D01*
X191935162Y-99814833D01*
X191804931Y-99499649D01*
X191934838Y-99186799D01*
X191935162Y-98814833D01*
X191795752Y-98477435D01*
X192142592Y-98477737D01*
X192486368Y-98335692D01*
X192749617Y-98072902D01*
X192892263Y-97729374D01*
X192892587Y-97357408D01*
X192750542Y-97013632D01*
X192487752Y-96750383D01*
X192144224Y-96607737D01*
X191772258Y-96607413D01*
X191529847Y-96707575D01*
X181578112Y-96707575D01*
X181447459Y-96653323D01*
X181075493Y-96652999D01*
X180731717Y-96795044D01*
X180468468Y-97057834D01*
X180325822Y-97401362D01*
X180325563Y-97698647D01*
X180156411Y-97665000D01*
X167927234Y-97665000D01*
X167686799Y-97565162D01*
X167314833Y-97564838D01*
X166971057Y-97706883D01*
X166707808Y-97969673D01*
X166565162Y-98313201D01*
X166564838Y-98685167D01*
X142495701Y-98685167D01*
X144845868Y-96335000D01*
X190572766Y-96335000D01*
X190813201Y-96434838D01*
X191185167Y-96435162D01*
X191528943Y-96293117D01*
X191792192Y-96030327D01*
X191934838Y-95686799D01*
X191935162Y-95314833D01*
X191804931Y-94999649D01*
X191934838Y-94686799D01*
X191935162Y-94314833D01*
X191793117Y-93971057D01*
X191530327Y-93707808D01*
X191186799Y-93565162D01*
X190814833Y-93564838D01*
X190572422Y-93665000D01*
X145835000Y-93665000D01*
X145835000Y-92927234D01*
X145934838Y-92686799D01*
X145935162Y-92314833D01*
X145793117Y-91971057D01*
X145530327Y-91707808D01*
X145186799Y-91565162D01*
X144814833Y-91564838D01*
X144471057Y-91706883D01*
X144207808Y-91969673D01*
X144065162Y-92313201D01*
X144064838Y-92685167D01*
X144165000Y-92927578D01*
X144165000Y-93665000D01*
X141000000Y-93665000D01*
X140680460Y-93728560D01*
X140409566Y-93909566D01*
X140211667Y-94107465D01*
X139971057Y-94206883D01*
X139707808Y-94469673D01*
X139565162Y-94813201D01*
X139564838Y-95185167D01*
X139706883Y-95528943D01*
X139969673Y-95792192D01*
X140313201Y-95934838D01*
X140685167Y-95935162D01*
X141028943Y-95793117D01*
X141292192Y-95530327D01*
X141373299Y-95335000D01*
X143484132Y-95335000D01*
X141211667Y-97607465D01*
X140971057Y-97706883D01*
X140707808Y-97969673D01*
X140660975Y-98082459D01*
X126408093Y-98082459D01*
X126167658Y-97982621D01*
X125795692Y-97982297D01*
X125451916Y-98124342D01*
X125188667Y-98387132D01*
X125046021Y-98730660D01*
X125045697Y-99102626D01*
X80627000Y-99102626D01*
X80627000Y-92585750D01*
X97065000Y-92585750D01*
X97065000Y-93426310D01*
X97161673Y-93659699D01*
X97340302Y-93838327D01*
X97573691Y-93935000D01*
X98414250Y-93935000D01*
X98573000Y-93776250D01*
X98573000Y-92427000D01*
X98827000Y-92427000D01*
X98827000Y-93776250D01*
X98985750Y-93935000D01*
X99826309Y-93935000D01*
X100059698Y-93838327D01*
X100238327Y-93659699D01*
X100335000Y-93426310D01*
X100335000Y-92585750D01*
X100176250Y-92427000D01*
X98827000Y-92427000D01*
X98573000Y-92427000D01*
X97223750Y-92427000D01*
X97065000Y-92585750D01*
X80627000Y-92585750D01*
X80627000Y-91173690D01*
X97065000Y-91173690D01*
X97065000Y-92014250D01*
X97223750Y-92173000D01*
X98573000Y-92173000D01*
X98573000Y-90823750D01*
X98827000Y-90823750D01*
X98827000Y-92173000D01*
X100176250Y-92173000D01*
X100335000Y-92014250D01*
X100335000Y-91173690D01*
X100238327Y-90940301D01*
X100059698Y-90761673D01*
X99826309Y-90665000D01*
X98985750Y-90665000D01*
X98827000Y-90823750D01*
X98573000Y-90823750D01*
X98414250Y-90665000D01*
X97573691Y-90665000D01*
X97340302Y-90761673D01*
X97161673Y-90940301D01*
X97065000Y-91173690D01*
X80627000Y-91173690D01*
X80627000Y-89685000D01*
X208873000Y-89685000D01*
X208873000Y-108373000D01*
X208873000Y-108373000D01*
G37*
X208873000Y-108373000D02*
X184957601Y-108373000D01*
X184957601Y-106394070D01*
X185107412Y-106033285D01*
X185107789Y-105601645D01*
X184942955Y-105202718D01*
X184638006Y-104897236D01*
X184239368Y-104731707D01*
X183807728Y-104731330D01*
X183408801Y-104896164D01*
X183103319Y-105201113D01*
X182937790Y-105599751D01*
X182937413Y-106031391D01*
X183087601Y-106394872D01*
X183087601Y-108373000D01*
X143625108Y-108373000D01*
X142565090Y-107312982D01*
X142261754Y-107110300D01*
X141903945Y-107039127D01*
X137812202Y-107039127D01*
X137454393Y-107110300D01*
X137151057Y-107312982D01*
X136091039Y-108373000D01*
X110935000Y-108373000D01*
X110935000Y-107000000D01*
X110863827Y-106642191D01*
X110661145Y-106338855D01*
X110569536Y-106247246D01*
X110420354Y-105886200D01*
X110115405Y-105580718D01*
X109716767Y-105415189D01*
X109285127Y-105414812D01*
X108886200Y-105579646D01*
X108580718Y-105884595D01*
X108415189Y-106283233D01*
X108414812Y-106714873D01*
X108579646Y-107113800D01*
X108884595Y-107419282D01*
X109065000Y-107494193D01*
X109065000Y-108373000D01*
X100347440Y-108373000D01*
X100347440Y-106700000D01*
X100303162Y-106464683D01*
X100164090Y-106248559D01*
X99951890Y-106103569D01*
X99700000Y-106052560D01*
X97700000Y-106052560D01*
X97464683Y-106096838D01*
X97248559Y-106235910D01*
X97103569Y-106448110D01*
X97052560Y-106700000D01*
X97052560Y-108373000D01*
X80627000Y-108373000D01*
X80627000Y-101185167D01*
X166564838Y-101185167D01*
X166665000Y-101427578D01*
X166665000Y-101500000D01*
X166728561Y-101819541D01*
X166805600Y-101934838D01*
X166909566Y-102090434D01*
X168409566Y-103590434D01*
X168680459Y-103771439D01*
X169000000Y-103835000D01*
X190072766Y-103835000D01*
X190313201Y-103934838D01*
X190685167Y-103935162D01*
X191028943Y-103793117D01*
X191292192Y-103530327D01*
X191434838Y-103186799D01*
X191435162Y-102814833D01*
X191293117Y-102471057D01*
X191030327Y-102207808D01*
X190686799Y-102065162D01*
X190314833Y-102064838D01*
X190072422Y-102165000D01*
X169345868Y-102165000D01*
X168415130Y-101234262D01*
X168434838Y-101186799D01*
X168435162Y-100814833D01*
X168293117Y-100471057D01*
X168030327Y-100207808D01*
X167686799Y-100065162D01*
X167314833Y-100064838D01*
X166971057Y-100206883D01*
X166707808Y-100469673D01*
X166565162Y-100813201D01*
X166564838Y-101185167D01*
X80627000Y-101185167D01*
X80627000Y-99102626D01*
X125045697Y-99102626D01*
X125187742Y-99446402D01*
X125450532Y-99709651D01*
X125794060Y-99852297D01*
X126166026Y-99852621D01*
X126408437Y-99752459D01*
X141082541Y-99752459D01*
X141402082Y-99688898D01*
X141672975Y-99507893D01*
X141788333Y-99392535D01*
X142028943Y-99293117D01*
X142292192Y-99030327D01*
X142392778Y-98788090D01*
X142495701Y-98685167D01*
X166564838Y-98685167D01*
X166706883Y-99028943D01*
X166969673Y-99292192D01*
X167313201Y-99434838D01*
X167685167Y-99435162D01*
X167927578Y-99335000D01*
X175275360Y-99335000D01*
X175275169Y-99554093D01*
X175417214Y-99897869D01*
X175680004Y-100161118D01*
X175922241Y-100261704D01*
X176250971Y-100590434D01*
X176521865Y-100771440D01*
X176841405Y-100835000D01*
X182065143Y-100835000D01*
X182064838Y-101185167D01*
X182206883Y-101528943D01*
X182469673Y-101792192D01*
X182813201Y-101934838D01*
X183185167Y-101935162D01*
X183427578Y-101835000D01*
X185572766Y-101835000D01*
X185813201Y-101934838D01*
X186185167Y-101935162D01*
X186528943Y-101793117D01*
X186792192Y-101530327D01*
X186934838Y-101186799D01*
X186935144Y-100835000D01*
X190572766Y-100835000D01*
X190813201Y-100934838D01*
X191185167Y-100935162D01*
X191528943Y-100793117D01*
X191792192Y-100530327D01*
X191934838Y-100186799D01*
X191935162Y-99814833D01*
X191804931Y-99499649D01*
X191934838Y-99186799D01*
X191935162Y-98814833D01*
X191795752Y-98477435D01*
X192142592Y-98477737D01*
X192486368Y-98335692D01*
X192749617Y-98072902D01*
X192892263Y-97729374D01*
X192892587Y-97357408D01*
X192750542Y-97013632D01*
X192487752Y-96750383D01*
X192144224Y-96607737D01*
X191772258Y-96607413D01*
X191529847Y-96707575D01*
X181578112Y-96707575D01*
X181447459Y-96653323D01*
X181075493Y-96652999D01*
X180731717Y-96795044D01*
X180468468Y-97057834D01*
X180325822Y-97401362D01*
X180325563Y-97698647D01*
X180156411Y-97665000D01*
X167927234Y-97665000D01*
X167686799Y-97565162D01*
X167314833Y-97564838D01*
X166971057Y-97706883D01*
X166707808Y-97969673D01*
X166565162Y-98313201D01*
X166564838Y-98685167D01*
X142495701Y-98685167D01*
X144845868Y-96335000D01*
X190572766Y-96335000D01*
X190813201Y-96434838D01*
X191185167Y-96435162D01*
X191528943Y-96293117D01*
X191792192Y-96030327D01*
X191934838Y-95686799D01*
X191935162Y-95314833D01*
X191804931Y-94999649D01*
X191934838Y-94686799D01*
X191935162Y-94314833D01*
X191793117Y-93971057D01*
X191530327Y-93707808D01*
X191186799Y-93565162D01*
X190814833Y-93564838D01*
X190572422Y-93665000D01*
X145835000Y-93665000D01*
X145835000Y-92927234D01*
X145934838Y-92686799D01*
X145935162Y-92314833D01*
X145793117Y-91971057D01*
X145530327Y-91707808D01*
X145186799Y-91565162D01*
X144814833Y-91564838D01*
X144471057Y-91706883D01*
X144207808Y-91969673D01*
X144065162Y-92313201D01*
X144064838Y-92685167D01*
X144165000Y-92927578D01*
X144165000Y-93665000D01*
X141000000Y-93665000D01*
X140680460Y-93728560D01*
X140409566Y-93909566D01*
X140211667Y-94107465D01*
X139971057Y-94206883D01*
X139707808Y-94469673D01*
X139565162Y-94813201D01*
X139564838Y-95185167D01*
X139706883Y-95528943D01*
X139969673Y-95792192D01*
X140313201Y-95934838D01*
X140685167Y-95935162D01*
X141028943Y-95793117D01*
X141292192Y-95530327D01*
X141373299Y-95335000D01*
X143484132Y-95335000D01*
X141211667Y-97607465D01*
X140971057Y-97706883D01*
X140707808Y-97969673D01*
X140660975Y-98082459D01*
X126408093Y-98082459D01*
X126167658Y-97982621D01*
X125795692Y-97982297D01*
X125451916Y-98124342D01*
X125188667Y-98387132D01*
X125046021Y-98730660D01*
X125045697Y-99102626D01*
X80627000Y-99102626D01*
X80627000Y-92585750D01*
X97065000Y-92585750D01*
X97065000Y-93426310D01*
X97161673Y-93659699D01*
X97340302Y-93838327D01*
X97573691Y-93935000D01*
X98414250Y-93935000D01*
X98573000Y-93776250D01*
X98573000Y-92427000D01*
X98827000Y-92427000D01*
X98827000Y-93776250D01*
X98985750Y-93935000D01*
X99826309Y-93935000D01*
X100059698Y-93838327D01*
X100238327Y-93659699D01*
X100335000Y-93426310D01*
X100335000Y-92585750D01*
X100176250Y-92427000D01*
X98827000Y-92427000D01*
X98573000Y-92427000D01*
X97223750Y-92427000D01*
X97065000Y-92585750D01*
X80627000Y-92585750D01*
X80627000Y-91173690D01*
X97065000Y-91173690D01*
X97065000Y-92014250D01*
X97223750Y-92173000D01*
X98573000Y-92173000D01*
X98573000Y-90823750D01*
X98827000Y-90823750D01*
X98827000Y-92173000D01*
X100176250Y-92173000D01*
X100335000Y-92014250D01*
X100335000Y-91173690D01*
X100238327Y-90940301D01*
X100059698Y-90761673D01*
X99826309Y-90665000D01*
X98985750Y-90665000D01*
X98827000Y-90823750D01*
X98573000Y-90823750D01*
X98414250Y-90665000D01*
X97573691Y-90665000D01*
X97340302Y-90761673D01*
X97161673Y-90940301D01*
X97065000Y-91173690D01*
X80627000Y-91173690D01*
X80627000Y-89685000D01*
X208873000Y-89685000D01*
X208873000Y-108373000D01*
M02*
