M48
;DRILL file {KiCad 4.0.7-e2-6376~58~ubuntu16.04.1} date Thu Jul 12 19:00:58 2018
;FORMAT={-:-/ absolute / inch / decimal}
FMAT,2
INCH,TZ
T1C0.016
T2C0.024
T3C0.031
T4C0.035
T5C0.055
T6C0.091
%
G90
G05
M72
T1
X4.9599Y-3.8944
X5.5315Y-3.7402
X5.5709Y-3.878
X5.7087Y-3.6417
X6.5945Y-3.878
X6.5945Y-3.9764
X6.9374Y-3.9122
X7.1362Y-3.8421
X7.2047Y-3.9764
X7.3228Y-3.9764
X7.5Y-4.0551
X7.5197Y-3.7205
X7.5197Y-3.7598
X7.5197Y-3.8976
X7.5197Y-3.937
X7.5574Y-3.8403
T2
X4.311Y-4.1929
X4.6026Y-3.862
X4.9949Y-3.8452
X5.Y-4.1701
X6.9429Y-3.812
X7.0214Y-3.9759
X7.245Y-4.166
X7.3031Y-4.2126
X7.3071Y-3.8068
X7.5257Y-4.229
X7.5394Y-3.5827
T3
X2.5984Y-4.5
X2.5984Y-4.6
X2.5984Y-5.
X2.5984Y-5.3
X3.4252Y-4.5
X3.4252Y-4.6
X3.4252Y-5.
X3.4252Y-5.3
X4.252Y-4.5
X4.252Y-4.6
X4.252Y-5.
X4.252Y-5.3
X5.0787Y-4.5
X5.0787Y-4.6
X5.0787Y-5.
X5.0787Y-5.3
X5.9055Y-4.5
X5.9055Y-4.6
X5.9055Y-5.
X5.9055Y-5.3
X6.7323Y-4.5
X6.7323Y-4.6
X6.7323Y-5.
X6.7323Y-5.3
X7.5591Y-4.5
X7.5591Y-4.6
X7.5591Y-5.
X7.5591Y-5.3
X8.3858Y-4.5
X8.3858Y-4.6
X8.3858Y-5.
X8.3858Y-5.3
T4
X2.7283Y-3.8386
X2.7283Y-4.0354
X3.8858Y-3.6339
X3.8858Y-4.2402
T5
X2.0835Y-4.6606
X2.0835Y-4.9606
X2.2835Y-4.6606
X2.2835Y-4.9606
X2.9102Y-4.6606
X2.9102Y-4.9606
X3.1102Y-4.6606
X3.1102Y-4.9606
X3.7402Y-4.6606
X3.7402Y-4.9606
X3.9402Y-4.6606
X3.9402Y-4.9606
X4.5669Y-4.6606
X4.5669Y-4.9606
X4.7669Y-4.6606
X4.7669Y-4.9606
X5.3937Y-4.6606
X5.3937Y-4.9606
X5.5937Y-4.6606
X5.5937Y-4.9606
X6.2173Y-4.6606
X6.2173Y-4.9606
X6.4173Y-4.6606
X6.4173Y-4.9606
X7.0441Y-4.6606
X7.0441Y-4.9606
X7.2441Y-4.6606
X7.2441Y-4.9606
X7.874Y-4.6606
X7.874Y-4.9606
X8.074Y-4.6606
X8.074Y-4.9606
X8.7008Y-4.6606
X8.7008Y-4.9606
X8.9008Y-4.6606
X8.9008Y-4.9606
T6
X2.0866Y-4.4094
X5.5118Y-4.4094
X9.0157Y-4.4094
T0
M30
