G04 #@! TF.FileFunction,Copper,L1,Top,Signal*
%FSLAX46Y46*%
G04 Gerber Fmt 4.6, Leading zero omitted, Abs format (unit mm)*
G04 Created by KiCad (PCBNEW 4.0.7-e2-6376~58~ubuntu16.04.1) date Thu Jul 12 19:01:00 2018*
%MOMM*%
%LPD*%
G01*
G04 APERTURE LIST*
%ADD10C,0.100000*%
%ADD11O,2.540000X3.810000*%
%ADD12R,1.500000X0.600000*%
%ADD13R,2.000000X2.000000*%
%ADD14R,1.000000X1.000000*%
%ADD15R,1.500000X1.500000*%
%ADD16R,3.000000X1.500000*%
%ADD17R,1.250000X1.000000*%
%ADD18R,1.000000X1.250000*%
%ADD19R,1.200000X1.200000*%
%ADD20R,0.900000X0.800000*%
%ADD21R,0.700000X1.300000*%
%ADD22R,1.300000X0.700000*%
%ADD23C,4.000000*%
%ADD24C,0.900000*%
%ADD25C,0.600000*%
%ADD26C,0.600000*%
%ADD27C,0.400000*%
%ADD28C,1.500000*%
%ADD29C,3.000000*%
G04 APERTURE END LIST*
D10*
D11*
X52920000Y-118380000D03*
X52920000Y-126000000D03*
X58000000Y-118380000D03*
X58000000Y-126000000D03*
X73920000Y-118380000D03*
X73920000Y-126000000D03*
X79000000Y-118380000D03*
X79000000Y-126000000D03*
X95000000Y-118380000D03*
X95000000Y-126000000D03*
X100080000Y-118380000D03*
X100080000Y-126000000D03*
X116000000Y-118380000D03*
X116000000Y-126000000D03*
X121080000Y-118380000D03*
X121080000Y-126000000D03*
X137000000Y-118380000D03*
X137000000Y-126000000D03*
X142080000Y-118380000D03*
X142080000Y-126000000D03*
X157920000Y-118380000D03*
X157920000Y-126000000D03*
X163000000Y-118380000D03*
X163000000Y-126000000D03*
X178920000Y-118380000D03*
X178920000Y-126000000D03*
X184000000Y-118380000D03*
X184000000Y-126000000D03*
X200000000Y-118380000D03*
X200000000Y-126000000D03*
X205080000Y-118380000D03*
X205080000Y-126000000D03*
X221000000Y-118380000D03*
X221000000Y-126000000D03*
X226080000Y-118380000D03*
X226080000Y-126000000D03*
D12*
X129000000Y-96380000D03*
X129000000Y-97650000D03*
X129000000Y-98920000D03*
X129000000Y-100190000D03*
X129000000Y-101460000D03*
X129000000Y-102730000D03*
X129000000Y-104000000D03*
X129000000Y-105270000D03*
X138300000Y-105270000D03*
X138300000Y-104000000D03*
X138300000Y-102730000D03*
X138300000Y-101460000D03*
X138300000Y-100190000D03*
X138300000Y-98920000D03*
X138300000Y-97650000D03*
X138300000Y-96380000D03*
D13*
X69300000Y-97500000D03*
X69300000Y-102500000D03*
X98700000Y-92300000D03*
X98700000Y-107700000D03*
D14*
X208000000Y-91500000D03*
X206000000Y-91500000D03*
X204000000Y-91500000D03*
X202000000Y-91500000D03*
X200000000Y-91500000D03*
X198000000Y-91500000D03*
X196000000Y-91500000D03*
X194000000Y-91500000D03*
X194000000Y-108000000D03*
X196000000Y-108000000D03*
X198000000Y-108000000D03*
X200000000Y-108000000D03*
X202000000Y-108000000D03*
X204000000Y-108000000D03*
X206000000Y-108000000D03*
X208000000Y-108000000D03*
D15*
X66000000Y-114300000D03*
X66000000Y-116840000D03*
D13*
X66000000Y-127000000D03*
X66000000Y-134620000D03*
D15*
X87000000Y-114300000D03*
X87000000Y-116840000D03*
D13*
X87000000Y-127000000D03*
X87000000Y-134620000D03*
D15*
X108000000Y-114300000D03*
X108000000Y-116840000D03*
D13*
X108000000Y-127000000D03*
X108000000Y-134620000D03*
D15*
X129000000Y-114300000D03*
X129000000Y-116840000D03*
D13*
X129000000Y-127000000D03*
X129000000Y-134620000D03*
D15*
X150000000Y-114300000D03*
X150000000Y-116840000D03*
D13*
X150000000Y-127000000D03*
X150000000Y-134620000D03*
D15*
X171000000Y-114300000D03*
X171000000Y-116840000D03*
D13*
X171000000Y-127000000D03*
X171000000Y-134620000D03*
D15*
X192000000Y-114300000D03*
X192000000Y-116840000D03*
D13*
X192000000Y-127000000D03*
X192000000Y-134620000D03*
D15*
X213000000Y-114300000D03*
X213000000Y-116840000D03*
D13*
X213000000Y-127000000D03*
X213000000Y-134620000D03*
D16*
X174250000Y-96825000D03*
X169750000Y-98095000D03*
X174250000Y-99365000D03*
X169750000Y-100635000D03*
X174250000Y-101905000D03*
X169750000Y-103175000D03*
X114250000Y-98095000D03*
X109750000Y-99365000D03*
X114250000Y-100635000D03*
X109750000Y-101905000D03*
D17*
X186000000Y-93000000D03*
X186000000Y-91000000D03*
X188000000Y-93000000D03*
X188000000Y-91000000D03*
X190000000Y-93000000D03*
X190000000Y-91000000D03*
D18*
X187000000Y-97000000D03*
X189000000Y-97000000D03*
D19*
X182000000Y-101000000D03*
X179800000Y-101000000D03*
D20*
X161500000Y-91550000D03*
X161500000Y-93450000D03*
X163500000Y-92500000D03*
D21*
X187000000Y-101000000D03*
X188900000Y-101000000D03*
D22*
X143950000Y-95100000D03*
X143950000Y-97000000D03*
X144000000Y-100000000D03*
X144000000Y-101900000D03*
D21*
X188900000Y-103000000D03*
X187000000Y-103000000D03*
X188900000Y-105000000D03*
X187000000Y-105000000D03*
X188900000Y-95000000D03*
X187000000Y-95000000D03*
X188900000Y-99000000D03*
X187000000Y-99000000D03*
X188900000Y-107000000D03*
X187000000Y-107000000D03*
D18*
X135000000Y-94000000D03*
X133000000Y-94000000D03*
D23*
X140000000Y-112000000D03*
X229000000Y-112000000D03*
X53000000Y-112000000D03*
D24*
X109500000Y-106500000D03*
X184022601Y-105816518D03*
X126870478Y-97668546D03*
X185601048Y-96692565D03*
X178343175Y-100988127D03*
X191153126Y-107416923D03*
X185500000Y-107000000D03*
X191500000Y-91000000D03*
X176350000Y-96825000D03*
X127000000Y-105920000D03*
X116905000Y-98095000D03*
D25*
X181260660Y-97588161D03*
X191957425Y-97542575D03*
X145000000Y-92500000D03*
X140500000Y-95000000D03*
X191000000Y-94500000D03*
X125980859Y-98917459D03*
X141500000Y-98500000D03*
X191000000Y-95500000D03*
X190500000Y-103000000D03*
X167500000Y-101000000D03*
X176210331Y-99368926D03*
X191000000Y-100000000D03*
X167500000Y-98500000D03*
X191000000Y-99000000D03*
X183000000Y-101000000D03*
X186000000Y-101000000D03*
D26*
X109500000Y-106500000D02*
X109500000Y-102155000D01*
X109500000Y-102155000D02*
X109750000Y-101905000D01*
X184000000Y-103000000D02*
X184000000Y-105000000D01*
X184000000Y-105000000D02*
X184000000Y-105592111D01*
X185252713Y-105000000D02*
X184000000Y-105000000D01*
X187000000Y-105000000D02*
X185252713Y-105000000D01*
X184022601Y-105657542D02*
X184022601Y-105816518D01*
X183978585Y-105613526D02*
X184022601Y-105657542D01*
X184000000Y-105592111D02*
X183978585Y-105613526D01*
X146000000Y-94000000D02*
X146000000Y-93311926D01*
X146000000Y-93311926D02*
X146811926Y-92500000D01*
X146811926Y-92500000D02*
X163500000Y-92500000D01*
X146000000Y-101150000D02*
X146000000Y-94000000D01*
X146000000Y-94000000D02*
X145907354Y-94000000D01*
X144020372Y-94000000D02*
X145907354Y-94000000D01*
X144000000Y-101900000D02*
X145250000Y-101900000D01*
X145250000Y-101900000D02*
X146000000Y-101150000D01*
X143950000Y-95100000D02*
X143950000Y-94070372D01*
X143950000Y-94070372D02*
X144020372Y-94000000D01*
X135000000Y-94000000D02*
X144020372Y-94000000D01*
X138300000Y-96380000D02*
X137380000Y-96380000D01*
X137380000Y-96380000D02*
X135000000Y-94000000D01*
X135000000Y-94000000D02*
X138300000Y-94000000D01*
X163500000Y-92500000D02*
X163500000Y-92534834D01*
X163500000Y-92534834D02*
X163965166Y-93000000D01*
X163965166Y-93000000D02*
X184000000Y-93000000D01*
X184000000Y-93000000D02*
X184775000Y-93000000D01*
X184000000Y-93775000D02*
X184000000Y-93000000D01*
X184000000Y-95000000D02*
X184000000Y-93775000D01*
X184000000Y-99000000D02*
X184000000Y-95000000D01*
X187000000Y-95000000D02*
X184000000Y-95000000D01*
X184000000Y-103000000D02*
X184000000Y-99000000D01*
X187000000Y-99000000D02*
X186050000Y-99000000D01*
X186050000Y-99000000D02*
X184000000Y-99000000D01*
X187000000Y-103000000D02*
X184000000Y-103000000D01*
X184775000Y-93000000D02*
X186000000Y-93000000D01*
X186000000Y-93000000D02*
X187000000Y-93000000D01*
X187000000Y-93000000D02*
X188000000Y-93000000D01*
X190000000Y-93000000D02*
X192500000Y-93000000D01*
X192500000Y-93000000D02*
X194000000Y-91500000D01*
X188000000Y-93000000D02*
X190000000Y-93000000D01*
X126889024Y-97650000D02*
X126870478Y-97668546D01*
X129000000Y-97650000D02*
X126889024Y-97650000D01*
X185601048Y-96701048D02*
X185601048Y-96692565D01*
X185900000Y-97000000D02*
X185601048Y-96701048D01*
X187000000Y-97000000D02*
X185900000Y-97000000D01*
X178355048Y-101000000D02*
X178343175Y-100988127D01*
X179800000Y-101000000D02*
X178355048Y-101000000D01*
X191603125Y-107866922D02*
X191153126Y-107416923D01*
X191736203Y-108000000D02*
X191603125Y-107866922D01*
X194000000Y-108000000D02*
X191736203Y-108000000D01*
X129000000Y-96380000D02*
X130620000Y-96380000D01*
X130620000Y-96380000D02*
X133000000Y-94000000D01*
X187000000Y-107000000D02*
X185500000Y-107000000D01*
X190000000Y-91000000D02*
X191500000Y-91000000D01*
X188000000Y-91000000D02*
X190000000Y-91000000D01*
X186000000Y-91000000D02*
X188000000Y-91000000D01*
X176500000Y-96975000D02*
X176350000Y-96825000D01*
X174250000Y-96825000D02*
X176350000Y-96825000D01*
X129000000Y-105270000D02*
X127650000Y-105270000D01*
X127650000Y-105270000D02*
X127000000Y-105920000D01*
X129000000Y-97650000D02*
X129000000Y-98920000D01*
X129000000Y-96380000D02*
X129000000Y-97650000D01*
X114250000Y-98095000D02*
X116905000Y-98095000D01*
D27*
X191957425Y-97542575D02*
X191957425Y-97503112D01*
X191957425Y-97503112D02*
X191951820Y-97497507D01*
X191951820Y-97497507D02*
X191502493Y-97497507D01*
X191502493Y-97497507D02*
X191500000Y-97500000D01*
X202900000Y-97500000D02*
X191500000Y-97500000D01*
X191500000Y-97500000D02*
X189500000Y-97500000D01*
X174250000Y-101905000D02*
X175838377Y-101905000D01*
X175838377Y-101905000D02*
X180155216Y-97588161D01*
X180155216Y-97588161D02*
X180836396Y-97588161D01*
X180836396Y-97588161D02*
X181260660Y-97588161D01*
X208000000Y-91500000D02*
X208000000Y-92400000D01*
X208000000Y-92400000D02*
X202900000Y-97500000D01*
X189500000Y-97500000D02*
X189000000Y-97000000D01*
X188900000Y-99000000D02*
X188900000Y-97100000D01*
X188900000Y-97100000D02*
X189000000Y-97000000D01*
D26*
X104450000Y-91550000D02*
X98700000Y-97300000D01*
X98700000Y-97300000D02*
X98700000Y-107700000D01*
X161500000Y-91550000D02*
X104450000Y-91550000D01*
X161500000Y-102000000D02*
X162675000Y-103175000D01*
X162675000Y-103175000D02*
X169750000Y-103175000D01*
X161500000Y-93450000D02*
X161500000Y-102000000D01*
D28*
X58000000Y-118380000D02*
X58000000Y-109000000D01*
X66500000Y-106000000D02*
X66500000Y-103825241D01*
X58000000Y-109000000D02*
X59000000Y-108000000D01*
X59000000Y-108000000D02*
X64500000Y-108000000D01*
X64500000Y-108000000D02*
X66500000Y-106000000D01*
X66500000Y-103825241D02*
X67825241Y-102500000D01*
X67825241Y-102500000D02*
X69300000Y-102500000D01*
D29*
X226080000Y-118380000D02*
X226080000Y-126000000D01*
X184000000Y-131000000D02*
X205000000Y-131000000D01*
X205000000Y-131000000D02*
X224000000Y-131000000D01*
X205080000Y-130920000D02*
X205000000Y-131000000D01*
X205080000Y-126000000D02*
X205080000Y-130920000D01*
X205080000Y-118380000D02*
X205080000Y-126000000D01*
X163500000Y-131000000D02*
X184000000Y-131000000D01*
X184000000Y-126000000D02*
X184000000Y-131000000D01*
X184000000Y-118380000D02*
X184000000Y-126000000D01*
X142500000Y-131000000D02*
X163500000Y-131000000D01*
X163000000Y-126000000D02*
X163000000Y-130905000D01*
X163000000Y-130905000D02*
X163095000Y-131000000D01*
X163095000Y-131000000D02*
X163500000Y-131000000D01*
X163000000Y-118380000D02*
X163000000Y-126000000D01*
X121000000Y-131000000D02*
X142500000Y-131000000D01*
X142080000Y-126000000D02*
X142080000Y-130905000D01*
X142080000Y-130905000D02*
X142175000Y-131000000D01*
X142175000Y-131000000D02*
X142500000Y-131000000D01*
X142080000Y-118380000D02*
X142080000Y-126000000D01*
X100000000Y-131000000D02*
X121000000Y-131000000D01*
X121080000Y-126000000D02*
X121080000Y-130920000D01*
X121080000Y-130920000D02*
X121000000Y-131000000D01*
X121080000Y-118380000D02*
X121080000Y-126000000D01*
X58000000Y-118380000D02*
X58000000Y-126000000D01*
X100080000Y-118380000D02*
X100080000Y-126000000D01*
X79000000Y-118380000D02*
X79000000Y-126000000D01*
X79000000Y-131000000D02*
X100000000Y-131000000D01*
X100080000Y-126000000D02*
X100080000Y-130920000D01*
X100080000Y-130920000D02*
X100000000Y-131000000D01*
X62365000Y-131000000D02*
X79000000Y-131000000D01*
X79000000Y-126000000D02*
X79000000Y-130905000D01*
X79000000Y-130905000D02*
X79000000Y-131000000D01*
X58000000Y-126000000D02*
X58000000Y-126635000D01*
X58000000Y-126635000D02*
X62365000Y-131000000D01*
X224000000Y-131000000D02*
X226000000Y-129000000D01*
X226000000Y-126080000D02*
X226080000Y-126000000D01*
X226000000Y-129000000D02*
X226000000Y-126080000D01*
X73920000Y-126000000D02*
X67000000Y-126000000D01*
X67000000Y-126000000D02*
X66000000Y-127000000D01*
X73920000Y-118380000D02*
X73920000Y-126000000D01*
X95000000Y-126000000D02*
X88000000Y-126000000D01*
X88000000Y-126000000D02*
X87000000Y-127000000D01*
X95000000Y-118380000D02*
X95000000Y-126000000D01*
X116000000Y-126000000D02*
X109000000Y-126000000D01*
X109000000Y-126000000D02*
X108000000Y-127000000D01*
X116000000Y-118380000D02*
X116000000Y-126000000D01*
X137000000Y-126000000D02*
X130000000Y-126000000D01*
X130000000Y-126000000D02*
X129000000Y-127000000D01*
X137000000Y-118380000D02*
X137000000Y-126000000D01*
X157920000Y-126000000D02*
X151000000Y-126000000D01*
X151000000Y-126000000D02*
X150000000Y-127000000D01*
X157920000Y-118380000D02*
X157920000Y-126000000D01*
X178920000Y-126000000D02*
X172000000Y-126000000D01*
X172000000Y-126000000D02*
X171000000Y-127000000D01*
X178920000Y-118380000D02*
X178920000Y-126000000D01*
X200000000Y-126000000D02*
X193000000Y-126000000D01*
X193000000Y-126000000D02*
X192000000Y-127000000D01*
X200000000Y-118380000D02*
X200000000Y-126000000D01*
X221000000Y-126000000D02*
X214000000Y-126000000D01*
X214000000Y-126000000D02*
X213000000Y-127000000D01*
X221000000Y-118380000D02*
X221000000Y-126000000D01*
D27*
X125500000Y-92500000D02*
X145000000Y-92500000D01*
X117365000Y-100635000D02*
X125500000Y-92500000D01*
X114250000Y-100635000D02*
X117365000Y-100635000D01*
X140486339Y-97008439D02*
X140494778Y-97000000D01*
X140494778Y-97000000D02*
X143650000Y-97000000D01*
X143650000Y-97000000D02*
X143950000Y-97000000D01*
X138300000Y-97650000D02*
X139863006Y-97650000D01*
X139863006Y-97650000D02*
X140500010Y-97012996D01*
X140500010Y-97012996D02*
X140500010Y-96500010D01*
X140500010Y-96500010D02*
X140500000Y-96500000D01*
X140500000Y-95000000D02*
X140500000Y-96500000D01*
X195900000Y-94500000D02*
X191000000Y-94500000D01*
X198000000Y-91500000D02*
X198000000Y-92400000D01*
X198000000Y-92400000D02*
X195900000Y-94500000D01*
X109750000Y-99365000D02*
X110500000Y-99365000D01*
X110500000Y-99365000D02*
X111859306Y-100724306D01*
X111859306Y-100724306D02*
X111859306Y-101611314D01*
X111859306Y-101611314D02*
X112349247Y-102101255D01*
X112349247Y-102101255D02*
X122797063Y-102101255D01*
X122797063Y-102101255D02*
X125680860Y-99217458D01*
X125680860Y-99217458D02*
X125980859Y-98917459D01*
X138300000Y-98920000D02*
X141500000Y-98920000D01*
X141500000Y-98920000D02*
X142620000Y-98920000D01*
X141500000Y-98500000D02*
X141500000Y-98920000D01*
X142620000Y-98920000D02*
X143700000Y-100000000D01*
X143700000Y-100000000D02*
X144000000Y-100000000D01*
X196900000Y-95500000D02*
X191000000Y-95500000D01*
X200000000Y-91500000D02*
X200000000Y-92400000D01*
X200000000Y-92400000D02*
X196900000Y-95500000D01*
X202000000Y-108000000D02*
X202000000Y-107100000D01*
X202000000Y-107100000D02*
X195900000Y-101000000D01*
X195900000Y-101000000D02*
X189650000Y-101000000D01*
X189650000Y-101000000D02*
X188900000Y-101000000D01*
X195900000Y-103000000D02*
X190500000Y-103000000D01*
X190500000Y-103000000D02*
X189650000Y-103000000D01*
X167500000Y-100985000D02*
X167500000Y-101000000D01*
X169750000Y-100635000D02*
X167850000Y-100635000D01*
X167850000Y-100635000D02*
X167500000Y-100985000D01*
X200000000Y-108000000D02*
X200000000Y-107100000D01*
X189650000Y-103000000D02*
X188900000Y-103000000D01*
X200000000Y-107100000D02*
X195900000Y-103000000D01*
X198000000Y-108000000D02*
X198000000Y-107100000D01*
X198000000Y-107100000D02*
X195900000Y-105000000D01*
X195900000Y-105000000D02*
X189650000Y-105000000D01*
X189650000Y-105000000D02*
X188900000Y-105000000D01*
X199900000Y-96500000D02*
X190400000Y-96500000D01*
X190400000Y-96500000D02*
X188900000Y-95000000D01*
X204000000Y-91500000D02*
X204000000Y-92400000D01*
X204000000Y-92400000D02*
X199900000Y-96500000D01*
X196000000Y-108000000D02*
X196000000Y-107100000D01*
X196000000Y-107100000D02*
X195400000Y-106500000D01*
X195400000Y-106500000D02*
X189400000Y-106500000D01*
X189400000Y-106500000D02*
X188900000Y-107000000D01*
X129000000Y-100190000D02*
X128550000Y-100190000D01*
X128550000Y-100190000D02*
X120255744Y-108484256D01*
X120255744Y-108484256D02*
X109212852Y-108484256D01*
X109212852Y-108484256D02*
X108583227Y-109113882D01*
X108583227Y-109113882D02*
X69857675Y-109113882D01*
X69857675Y-109113882D02*
X66000000Y-112971557D01*
X66000000Y-112971557D02*
X66000000Y-114300000D01*
X129000000Y-101460000D02*
X128550000Y-101460000D01*
X128550000Y-101460000D02*
X120925733Y-109084267D01*
X120925733Y-109084267D02*
X109461384Y-109084267D01*
X109461384Y-109084267D02*
X108683786Y-109861865D01*
X108683786Y-109861865D02*
X88915573Y-109861865D01*
X88915573Y-109861865D02*
X87000000Y-111777438D01*
X87000000Y-111777438D02*
X87000000Y-114300000D01*
X121595722Y-109684278D02*
X109815722Y-109684278D01*
X128550000Y-102730000D02*
X121595722Y-109684278D01*
X109815722Y-109684278D02*
X108000000Y-111500000D01*
X129000000Y-102730000D02*
X128550000Y-102730000D01*
X108000000Y-111500000D02*
X108000000Y-114300000D01*
X129000000Y-104000000D02*
X130000000Y-104000000D01*
X130000000Y-104000000D02*
X131000000Y-105000000D01*
X131000000Y-105000000D02*
X131000000Y-113450000D01*
X131000000Y-113450000D02*
X130150000Y-114300000D01*
X130150000Y-114300000D02*
X129000000Y-114300000D01*
X138300000Y-105270000D02*
X142964402Y-105270000D01*
X142964402Y-105270000D02*
X150037284Y-112342882D01*
X150037284Y-112342882D02*
X150037284Y-114300000D01*
X150037284Y-114300000D02*
X150000000Y-114300000D01*
X138300000Y-104000000D02*
X142586885Y-104000000D01*
X142586885Y-104000000D02*
X148595581Y-110008696D01*
X148595581Y-110008696D02*
X168818017Y-110008696D01*
X168818017Y-110008696D02*
X171000000Y-112190679D01*
X171000000Y-112190679D02*
X171000000Y-114300000D01*
X138300000Y-102730000D02*
X142165427Y-102730000D01*
X192000000Y-111264554D02*
X192000000Y-114300000D01*
X142165427Y-102730000D02*
X148835416Y-109399989D01*
X148835416Y-109399989D02*
X190135435Y-109399989D01*
X190135435Y-109399989D02*
X192000000Y-111264554D01*
X138300000Y-101460000D02*
X141839998Y-101460000D01*
X141839998Y-101460000D02*
X149179976Y-108799978D01*
X210906465Y-109812698D02*
X213000000Y-111906233D01*
X149179976Y-108799978D02*
X190383967Y-108799978D01*
X190383967Y-108799978D02*
X191396687Y-109812698D01*
X191396687Y-109812698D02*
X210906465Y-109812698D01*
X213000000Y-111906233D02*
X213000000Y-114300000D01*
X176206405Y-99365000D02*
X176210331Y-99368926D01*
X174250000Y-99365000D02*
X176206405Y-99365000D01*
X198900000Y-100000000D02*
X191000000Y-100000000D01*
X206000000Y-108000000D02*
X206000000Y-107100000D01*
X206000000Y-107100000D02*
X198900000Y-100000000D01*
X167500000Y-98500000D02*
X169345000Y-98500000D01*
X169345000Y-98500000D02*
X169750000Y-98095000D01*
X200000000Y-99000000D02*
X191000000Y-99000000D01*
X208000000Y-107000000D02*
X200000000Y-99000000D01*
X208000000Y-108000000D02*
X208000000Y-107000000D01*
X183000000Y-101000000D02*
X182000000Y-101000000D01*
X187000000Y-101000000D02*
X186000000Y-101000000D01*
M02*
